<svg xmlns="http://www.w3.org/2000/svg" viewBox="0 0 500 500"><g id="freepik--Floor--inject-23"><polygon points="41.36 458.9 93.52 458.66 145.68 458.57 250 458.41 354.32 458.57 406.48 458.66 458.64 458.9 406.48 459.15 354.32 459.24 250 459.4 145.68 459.24 93.52 459.15 41.36 458.9" style="fill:#263238"></polygon></g><g id="freepik--Smoke--inject-23"><g style="opacity:0.6000000000000001"><path d="M231.45,408.39a4.2,4.2,0,1,1-4.2-4.2A4.2,4.2,0,0,1,231.45,408.39Z" style="fill:#407BFF;opacity:0.6000000000000001"></path><path d="M204.81,427.08a2.05,2.05,0,1,1-2.05-2.05A2,2,0,0,1,204.81,427.08Z" style="fill:#407BFF;opacity:0.6000000000000001"></path><path d="M330.51,435.35a2,2,0,1,1-2-2.05A2,2,0,0,1,330.51,435.35Z" style="fill:#407BFF;opacity:0.6000000000000001"></path></g><path d="M160.46,456.12a2.78,2.78,0,0,0,2.77,2.78H336.77a2.79,2.79,0,0,0,0-5.57,2.86,2.86,0,0,0-.67.08,5.48,5.48,0,0,0-9.41-3.83l-.05,0c0-.34.05-.68.05-1a10.36,10.36,0,0,0-10.37-10.36,10.24,10.24,0,0,0-4.55,1.05A7.4,7.4,0,0,0,297.49,437a10.32,10.32,0,0,0-8.76-4.84,10.72,10.72,0,0,0-2,.19,13.79,13.79,0,0,0,.21-2.42,14,14,0,0,0-23.18-10.61,1.38,1.38,0,0,0-.17-.29,13.62,13.62,0,0,0-27.22,0,1.38,1.38,0,0,0-.17.29A14,14,0,0,0,213,429.91a13.79,13.79,0,0,0,.21,2.42,10.72,10.72,0,0,0-2-.19,10.32,10.32,0,0,0-8.76,4.84,7.4,7.4,0,0,0-14.28,2.25,10.37,10.37,0,0,0-14.92,9.31c0,.34,0,.68.05,1l-.05,0a5.48,5.48,0,0,0-9.41,3.83,2.86,2.86,0,0,0-.67-.08A2.79,2.79,0,0,0,160.46,456.12Z" style="fill:#407BFF;opacity:0.6000000000000001"></path><g style="opacity:0.6000000000000001"><path d="M436.84,432.6a5.93,5.93,0,1,0,5.93-5.93A5.93,5.93,0,0,0,436.84,432.6Z" style="fill:#407BFF;opacity:0.6000000000000001"></path><path d="M427.4,422.78a2.89,2.89,0,1,0,2.89-2.89A2.89,2.89,0,0,0,427.4,422.78Z" style="fill:#407BFF;opacity:0.6000000000000001"></path><path d="M253.34,409.87a2.89,2.89,0,1,0,2.89-2.89A2.89,2.89,0,0,0,253.34,409.87Z" style="fill:#407BFF;opacity:0.6000000000000001"></path></g><path d="M454.72,455a3.93,3.93,0,0,1-3.92,3.93H206a3.93,3.93,0,1,1,.93-7.74,7.74,7.74,0,0,1,13.28-5.41l.07,0c0-.48-.07-1-.07-1.44a14.62,14.62,0,0,1,21-13.13A10.43,10.43,0,0,1,261.4,428a14.58,14.58,0,0,1,12.37-6.83,15.16,15.16,0,0,1,2.79.26,19.14,19.14,0,0,1-.3-3.41A19.77,19.77,0,0,1,309,403a2.1,2.1,0,0,1,.24-.41,19.22,19.22,0,0,1,38.4,0,2.1,2.1,0,0,1,.24.41,19.77,19.77,0,0,1,32.7,15,19.14,19.14,0,0,1-.3,3.41,15.16,15.16,0,0,1,2.79-.26A14.57,14.57,0,0,1,395.4,428a10.43,10.43,0,0,1,20.14,3.17,14.62,14.62,0,0,1,21,13.13c0,.49,0,1-.07,1.44l.07,0a7.74,7.74,0,0,1,13.28,5.41,3.89,3.89,0,0,1,4.85,3.81Z" style="fill:#407BFF;opacity:0.6000000000000001"></path><g style="opacity:0.6000000000000001"><path d="M145.43,387.65a5.93,5.93,0,1,1-5.93-5.93A5.93,5.93,0,0,1,145.43,387.65Z" style="fill:#407BFF;opacity:0.6000000000000001"></path><path d="M107.84,414a2.89,2.89,0,1,1-2.89-2.89A2.89,2.89,0,0,1,107.84,414Z" style="fill:#407BFF;opacity:0.6000000000000001"></path><path d="M285.18,425.67a2.89,2.89,0,1,1-2.89-2.89A2.89,2.89,0,0,1,285.18,425.67Z" style="fill:#407BFF;opacity:0.6000000000000001"></path></g><path d="M45.28,455a3.93,3.93,0,0,0,3.92,3.93H294a3.93,3.93,0,1,0-.93-7.74,7.74,7.74,0,0,0-13.28-5.41l-.07,0c0-.48.07-1,.07-1.44a14.62,14.62,0,0,0-21.05-13.13A10.43,10.43,0,0,0,238.6,428a14.58,14.58,0,0,0-12.37-6.83,15.16,15.16,0,0,0-2.79.26,19.14,19.14,0,0,0,.3-3.41A19.77,19.77,0,0,0,191,403a2.1,2.1,0,0,0-.24-.41,19.22,19.22,0,0,0-38.4,0,2.1,2.1,0,0,0-.24.41,19.77,19.77,0,0,0-32.7,15,19.14,19.14,0,0,0,.3,3.41,15.16,15.16,0,0,0-2.79-.26A14.57,14.57,0,0,0,104.6,428a10.43,10.43,0,0,0-20.14,3.17,14.62,14.62,0,0,0-21,13.13c0,.49,0,1,.07,1.44l-.07,0a7.74,7.74,0,0,0-13.28,5.41A3.89,3.89,0,0,0,45.28,455Z" style="fill:#407BFF;opacity:0.6000000000000001"></path><path d="M392.74,458.9H107.26c93.89,0,129.18-66.84,132.27-111,2.76-39.39,2.1-88.4,2.1-88.4h16.73s-.65,49,2.1,88.4C263.56,392.06,298.84,458.9,392.74,458.9Z" style="fill:#407BFF;opacity:0.6000000000000001"></path><path d="M379.74,458.9H120.26c93.89,0,122.18-66.84,125.27-111,2.76-39.39,2.1-88.4,2.1-88.4h4.73s-.65,49,2.1,88.4C257.56,392.06,285.84,458.9,379.74,458.9Z" style="fill:#407BFF;opacity:0.6000000000000001"></path><polygon points="258.42 380.2 261.5 380.77 262.19 384.02 262.87 380.77 265.95 380.2 262.89 379.45 262.19 376.39 261.48 379.45 258.42 380.2" style="fill:#fff"></polygon><polygon points="70.92 446.57 74 447.14 74.69 450.38 75.38 447.14 78.46 446.57 75.39 445.82 74.69 442.75 73.99 445.82 70.92 446.57" style="fill:#fff"></polygon><polygon points="371.12 419.66 374.2 420.23 374.89 423.47 375.58 420.23 378.66 419.65 375.59 418.91 374.89 415.84 374.19 418.91 371.12 419.66" style="fill:#fff"></polygon><polygon points="341.79 436.23 343.51 436.55 343.89 438.37 344.28 436.55 346 436.23 344.29 435.81 343.89 434.1 343.5 435.81 341.79 436.23" style="fill:#fff"></polygon><polygon points="264.65 417.11 266.37 417.43 266.76 419.24 267.14 417.43 268.86 417.11 267.15 416.69 266.76 414.98 266.36 416.69 264.65 417.11" style="fill:#fff"></polygon><polygon points="334.1 450.76 335.82 451.08 336.21 452.89 336.59 451.08 338.31 450.76 336.6 450.34 336.21 448.63 335.82 450.34 334.1 450.76" style="fill:#fff"></polygon><polygon points="290.6 446.5 292.32 446.81 292.7 448.63 293.09 446.81 294.81 446.49 293.1 446.08 292.7 444.36 292.31 446.08 290.6 446.5" style="fill:#fff"></polygon><polygon points="98.47 448.63 100.19 448.95 100.58 450.76 100.96 448.95 102.68 448.63 100.97 448.21 100.58 446.5 100.18 448.21 98.47 448.63" style="fill:#fff"></polygon><polygon points="296.46 406.32 298.18 406.64 298.57 408.46 298.95 406.64 300.67 406.32 298.96 405.9 298.57 404.19 298.17 405.9 296.46 406.32" style="fill:#fff"></polygon><polygon points="354 406.32 355.72 406.64 356.1 408.46 356.49 406.64 358.21 406.32 356.49 405.9 356.1 404.19 355.71 405.9 354 406.32" style="fill:#fff"></polygon><path d="M245.09,445.57a.5.5,0,0,1,0,1A.5.5,0,0,1,245.09,445.57Z" style="fill:#fff"></path><path d="M309.86,392.78a.5.5,0,0,1,0,1A.5.5,0,0,1,309.86,392.78Z" style="fill:#fff"></path><path d="M352.44,448a.5.5,0,0,1,0,1A.5.5,0,0,1,352.44,448Z" style="fill:#fff"></path><path d="M320.81,441.15a.5.5,0,0,1,0,1A.5.5,0,0,1,320.81,441.15Z" style="fill:#fff"></path><path d="M257.59,436.6a.35.35,0,0,1,0,.7A.35.35,0,0,1,257.59,436.6Z" style="fill:#fff"></path><path d="M260.82,351.48a.35.35,0,0,1,0,.7A.35.35,0,0,1,260.82,351.48Z" style="fill:#fff"></path><path d="M301.21,431.3a.36.36,0,0,1,0,.71A.36.36,0,0,1,301.21,431.3Z" style="fill:#fff"></path><path d="M333.14,424.4a.36.36,0,0,1,0,.71A.36.36,0,0,1,333.14,424.4Z" style="fill:#fff"></path><path d="M278.51,425.85a1,1,0,0,1,0,1.91A1,1,0,0,1,278.51,425.85Z" style="fill:#fff"></path><path d="M328.62,421.16a1,1,0,0,1,0,1.91A1,1,0,0,1,328.62,421.16Z" style="fill:#fff"></path><polygon points="240.43 289.19 243.51 289.76 244.2 293.01 244.89 289.76 247.97 289.19 244.9 288.44 244.2 285.38 243.5 288.44 240.43 289.19" style="fill:#fff"></polygon><polygon points="216.35 437.45 218.08 437.77 218.46 439.59 218.84 437.77 220.57 437.45 218.85 437.04 218.46 435.32 218.07 437.04 216.35 437.45" style="fill:#fff"></polygon><polygon points="249.79 280.44 251.51 280.76 251.9 282.57 252.28 280.76 254 280.44 252.29 280.02 251.9 278.31 251.5 280.02 249.79 280.44" style="fill:#fff"></polygon><path d="M153.84,409.52a.5.5,0,0,1,0,1A.5.5,0,0,1,153.84,409.52Z" style="fill:#fff"></path><path d="M227,449.23a.5.5,0,0,1,0,1A.5.5,0,0,1,227,449.23Z" style="fill:#fff"></path><path d="M195.38,442.37a.5.5,0,0,1,0,1A.5.5,0,0,1,195.38,442.37Z" style="fill:#fff"></path><path d="M175.78,432.53a.35.35,0,0,1,0,.7A.35.35,0,0,1,175.78,432.53Z" style="fill:#fff"></path><path d="M207.71,425.63a.35.35,0,0,1,0,.7A.35.35,0,0,1,207.71,425.63Z" style="fill:#fff"></path><path d="M231.24,363.79a.35.35,0,0,1,0,.7A.35.35,0,0,1,231.24,363.79Z" style="fill:#fff"></path><path d="M203.19,422.38a1,1,0,0,1,0,1.92A1,1,0,0,1,203.19,422.38Z" style="fill:#fff"></path><path d="M257.25,302.12a1,1,0,0,1,0,1.91A1,1,0,0,1,257.25,302.12Z" style="fill:#fff"></path><path d="M139.57,444.61a1,1,0,0,1,0,1.92A1,1,0,0,1,139.57,444.61Z" style="fill:#fff"></path><polygon points="210.47 409.65 212.2 409.97 212.58 411.78 212.97 409.97 214.69 409.65 212.97 409.23 212.58 407.52 212.19 409.23 210.47 409.65" style="fill:#fff"></polygon><polygon points="407.38 446.57 409.1 446.89 409.49 448.7 409.87 446.89 411.59 446.57 409.88 446.15 409.49 444.43 409.1 446.15 407.38 446.57" style="fill:#fff"></polygon><path d="M221.12,421.42a.5.5,0,0,1,0,1A.5.5,0,0,1,221.12,421.42Z" style="fill:#fff"></path><path d="M236.27,394.5a.5.5,0,0,1,0,1A.5.5,0,0,1,236.27,394.5Z" style="fill:#fff"></path><polygon points="243.76 327.77 245.48 328.09 245.87 329.9 246.25 328.09 247.97 327.77 246.26 327.35 245.87 325.64 245.48 327.35 243.76 327.77" style="fill:#fff"></polygon><path d="M292.35,403.69a.5.5,0,0,1,0,1A.5.5,0,0,1,292.35,403.69Z" style="fill:#fff"></path><path d="M270.65,395.21a.35.35,0,0,1,0,.7A.35.35,0,0,1,270.65,395.21Z" style="fill:#fff"></path><polygon points="153.49 421.42 155.21 421.74 155.6 423.56 155.98 421.74 157.7 421.42 155.99 421 155.6 419.29 155.21 421 153.49 421.42" style="fill:#fff"></polygon><polygon points="424.86 452.89 426.59 453.21 426.97 455.03 427.36 453.21 429.08 452.89 427.36 452.48 426.97 450.76 426.58 452.48 424.86 452.89" style="fill:#fff"></polygon><path d="M128.73,421.42a.5.5,0,0,1,0,1A.5.5,0,0,1,128.73,421.42Z" style="fill:#fff"></path><path d="M161.79,424.05a.36.36,0,0,1,0,.71A.36.36,0,0,1,161.79,424.05Z" style="fill:#fff"></path><path d="M210.41,399a1,1,0,0,1,0,1.92A1,1,0,0,1,210.41,399Z" style="fill:#fff"></path><path d="M348.82,410.83a1,1,0,0,1,0,1.91A1,1,0,0,1,348.82,410.83Z" style="fill:#fff"></path></g><g id="freepik--Rocket--inject-23"><path d="M277.12,117V262.26H222.84V117c0-20.15-1.36-31.84,10.64-48.79,10.45-14.76,14.57-16.7,16.5-16.7s6,1.94,16.5,16.7C278.48,85.16,277.12,96.85,277.12,117Z" style="fill:#455a64"></path><path d="M260.92,60.79H239c6.46-8,9.41-9.28,10.95-9.28S254.46,52.75,260.92,60.79Z" style="fill:#263238"></path><path d="M230.79,72.29c3.2-.09,6.4-.16,9.59-.19L250,72l9.6.06c3.19,0,6.39.1,9.59.19-3.2.09-6.4.16-9.59.19l-9.6.06-9.6-.06C237.19,72.45,234,72.38,230.79,72.29Z" style="fill:#37474f"></path><path d="M222.86,103.08q6.78-.14,13.57-.19l13.57-.06,13.57.06q6.78,0,13.57.19-6.78.14-13.57.19l-13.57.06-13.57-.06Q229.65,103.23,222.86,103.08Z" style="fill:#37474f"></path><path d="M223.24,94.73q6.69-.14,13.37-.19L250,94.48l13.37.06q6.67,0,13.37.19-6.69.13-13.37.19L250,95l-13.37-.06Q229.92,94.88,223.24,94.73Z" style="fill:#37474f"></path><path d="M222.86,135.43q6.78-.13,13.57-.19l13.57-.06,13.57.06q6.78,0,13.57.19-6.78.13-13.57.19l-13.57.06-13.57-.06Q229.65,135.57,222.86,135.43Z" style="fill:#37474f"></path><path d="M222.86,167.78q6.78-.14,13.57-.19l13.57-.06,13.57.06q6.78,0,13.57.19-6.78.14-13.57.19L250,168,236.43,168Q229.65,167.93,222.86,167.78Z" style="fill:#37474f"></path><path d="M222.86,200.13q6.78-.13,13.57-.19l13.57-.06,13.57.06q6.78,0,13.57.19-6.78.13-13.57.19l-13.57.06-13.57-.06Q229.65,200.27,222.86,200.13Z" style="fill:#37474f"></path><path d="M222.86,232.48q6.78-.15,13.57-.2l13.57-.05,13.57.05q6.78.06,13.57.2-6.78.14-13.57.19l-13.57.06-13.57-.06Q229.65,232.61,222.86,232.48Z" style="fill:#37474f"></path><path d="M232.84,74.36a.71.71,0,0,1-1.41,0,.71.71,0,1,1,1.41,0Zm0,0a.59.59,0,0,0-.64-.58.58.58,0,0,0,0,1.15A.59.59,0,0,0,232.84,74.36Z" style="fill:#37474f"></path><path d="M240,74.36a.7.7,0,1,1-.64-.71A.7.7,0,0,1,240,74.36Zm0,0a.59.59,0,0,0-.64-.58.58.58,0,0,0,0,1.15A.59.59,0,0,0,240,74.36Z" style="fill:#37474f"></path><path d="M247.06,74.36a.7.7,0,0,1-.64.7.71.71,0,1,1,0-1.41A.7.7,0,0,1,247.06,74.36Zm0,0a.58.58,0,0,0-.64-.58.58.58,0,0,0,0,1.15A.58.58,0,0,0,247.06,74.36Z" style="fill:#37474f"></path><path d="M254.18,74.36a.71.71,0,0,1-1.41,0,.71.71,0,1,1,1.41,0Zm0,0a.59.59,0,0,0-.64-.58.58.58,0,0,0,0,1.15A.59.59,0,0,0,254.18,74.36Z" style="fill:#37474f"></path><path d="M261.29,74.36a.7.7,0,0,1-.64.7.71.71,0,1,1,0-1.41A.71.71,0,0,1,261.29,74.36Zm0,0a.59.59,0,0,0-.64-.58.58.58,0,0,0,0,1.15A.59.59,0,0,0,261.29,74.36Z" style="fill:#37474f"></path><path d="M268.4,74.36a.7.7,0,1,1-.64-.71A.7.7,0,0,1,268.4,74.36Zm0,0a.59.59,0,0,0-.64-.58.58.58,0,0,0,0,1.15A.59.59,0,0,0,268.4,74.36Z" style="fill:#37474f"></path><path d="M232.84,104.91a.71.71,0,1,1-.64-.7A.71.71,0,0,1,232.84,104.91Zm0,0a.59.59,0,0,0-.64-.57.58.58,0,0,0,0,1.15A.59.59,0,0,0,232.84,104.91Z" style="fill:#37474f"></path><path d="M240,104.91a.7.7,0,1,1-.64-.7A.71.71,0,0,1,240,104.91Zm0,0a.59.59,0,0,0-.64-.57.58.58,0,0,0,0,1.15A.59.59,0,0,0,240,104.91Z" style="fill:#37474f"></path><path d="M225.73,104.91a.71.71,0,1,1-.65-.7A.71.71,0,0,1,225.73,104.91Zm0,0a.59.59,0,0,0-.65-.57.58.58,0,0,0,0,1.15A.59.59,0,0,0,225.73,104.91Z" style="fill:#37474f"></path><path d="M247.06,104.91a.7.7,0,0,1-.64.71.71.71,0,0,1-.76-.71.7.7,0,0,1,.76-.7A.7.7,0,0,1,247.06,104.91Zm0,0a.58.58,0,0,0-.64-.57.58.58,0,0,0,0,1.15A.58.58,0,0,0,247.06,104.91Z" style="fill:#37474f"></path><path d="M254.18,104.91a.71.71,0,1,1-.64-.7A.71.71,0,0,1,254.18,104.91Zm0,0a.59.59,0,0,0-.64-.57.58.58,0,0,0,0,1.15A.59.59,0,0,0,254.18,104.91Z" style="fill:#37474f"></path><path d="M261.29,104.91a.71.71,0,0,1-.64.71.71.71,0,1,1,0-1.41A.7.7,0,0,1,261.29,104.91Zm0,0a.59.59,0,0,0-.64-.57.58.58,0,0,0,0,1.15A.59.59,0,0,0,261.29,104.91Z" style="fill:#37474f"></path><path d="M268.4,104.91a.7.7,0,0,1-.64.71.71.71,0,1,1,0-1.41A.7.7,0,0,1,268.4,104.91Zm0,0a.59.59,0,0,0-.64-.57.58.58,0,0,0,0,1.15A.59.59,0,0,0,268.4,104.91Z" style="fill:#37474f"></path><path d="M275.52,104.91a.71.71,0,1,1-.65-.7A.71.71,0,0,1,275.52,104.91Zm0,0a.59.59,0,0,0-.65-.57.58.58,0,0,0,0,1.15A.59.59,0,0,0,275.52,104.91Z" style="fill:#37474f"></path><path d="M232.84,96.85a.7.7,0,0,1-.64.7.7.7,0,1,1,0-1.4A.7.7,0,0,1,232.84,96.85Zm0,0a.58.58,0,1,0-.64.58A.59.59,0,0,0,232.84,96.85Z" style="fill:#37474f"></path><path d="M240,96.85a.7.7,0,0,1-.64.7.7.7,0,1,1,0-1.4A.7.7,0,0,1,240,96.85Zm0,0a.58.58,0,1,0-.64.58A.59.59,0,0,0,240,96.85Z" style="fill:#37474f"></path><path d="M225.73,96.85a.71.71,0,0,1-.65.7.71.71,0,0,1-.76-.7.71.71,0,0,1,1.41,0Zm0,0a.59.59,0,0,0-.65-.58.58.58,0,0,0,0,1.16A.59.59,0,0,0,225.73,96.85Z" style="fill:#37474f"></path><path d="M247.06,96.85a.69.69,0,0,1-.64.7.71.71,0,0,1-.76-.7.7.7,0,0,1,.76-.7A.69.69,0,0,1,247.06,96.85Zm0,0a.58.58,0,0,0-.64-.58.57.57,0,0,0-.51.58.58.58,0,1,0,1.15,0Z" style="fill:#37474f"></path><path d="M254.18,96.85a.7.7,0,0,1-.64.7.7.7,0,1,1,0-1.4A.7.7,0,0,1,254.18,96.85Zm0,0a.58.58,0,1,0-.64.58A.59.59,0,0,0,254.18,96.85Z" style="fill:#37474f"></path><path d="M261.29,96.85a.7.7,0,0,1-.64.7.7.7,0,1,1,0-1.4A.7.7,0,0,1,261.29,96.85Zm0,0a.58.58,0,1,0-.64.58A.59.59,0,0,0,261.29,96.85Z" style="fill:#37474f"></path><path d="M268.4,96.85a.69.69,0,0,1-.64.7.7.7,0,1,1,0-1.4A.69.69,0,0,1,268.4,96.85Zm0,0a.59.59,0,0,0-.64-.58.57.57,0,0,0-.51.58.58.58,0,0,0,.51.58A.59.59,0,0,0,268.4,96.85Z" style="fill:#37474f"></path><path d="M275.52,96.85a.71.71,0,0,1-.65.7.71.71,0,0,1-.76-.7.71.71,0,0,1,1.41,0Zm0,0a.59.59,0,0,0-.65-.58.57.57,0,0,0-.51.58.58.58,0,0,0,.51.58A.59.59,0,0,0,275.52,96.85Z" style="fill:#37474f"></path><path d="M232.84,137.68a.71.71,0,1,1-.64-.7A.71.71,0,0,1,232.84,137.68Zm0,0a.59.59,0,0,0-.64-.57.57.57,0,0,0-.52.57.58.58,0,1,0,1.16,0Z" style="fill:#37474f"></path><path d="M240,137.68a.7.7,0,1,1-1.4,0,.7.7,0,1,1,1.4,0Zm0,0a.59.59,0,0,0-.64-.57.57.57,0,0,0-.52.57.58.58,0,1,0,1.16,0Z" style="fill:#37474f"></path><path d="M225.73,137.68a.71.71,0,1,1-1.41,0,.71.71,0,0,1,1.41,0Zm0,0a.59.59,0,0,0-.65-.57.58.58,0,0,0,0,1.15A.59.59,0,0,0,225.73,137.68Z" style="fill:#37474f"></path><path d="M247.06,137.68a.7.7,0,1,1-.64-.7A.7.7,0,0,1,247.06,137.68Zm0,0a.58.58,0,0,0-.64-.57.56.56,0,0,0-.51.57.58.58,0,1,0,1.15,0Z" style="fill:#37474f"></path><path d="M254.18,137.68a.71.71,0,1,1-.64-.7A.71.71,0,0,1,254.18,137.68Zm0,0a.59.59,0,0,0-.64-.57.57.57,0,0,0-.52.57.58.58,0,1,0,1.16,0Z" style="fill:#37474f"></path><path d="M261.29,137.68a.71.71,0,1,1-.64-.7A.7.7,0,0,1,261.29,137.68Zm0,0a.59.59,0,0,0-.64-.57.57.57,0,0,0-.52.57.58.58,0,1,0,1.16,0Z" style="fill:#37474f"></path><path d="M268.4,137.68a.7.7,0,1,1-.64-.7A.7.7,0,0,1,268.4,137.68Zm0,0a.59.59,0,0,0-.64-.57.56.56,0,0,0-.51.57.57.57,0,0,0,.51.58A.59.59,0,0,0,268.4,137.68Z" style="fill:#37474f"></path><path d="M275.52,137.68a.71.71,0,1,1-1.41,0,.71.71,0,0,1,1.41,0Zm0,0a.59.59,0,0,0-.65-.57.56.56,0,0,0-.51.57.57.57,0,0,0,.51.58A.59.59,0,0,0,275.52,137.68Z" style="fill:#37474f"></path><path d="M232.84,170.45a.71.71,0,1,1-.64-.7A.7.7,0,0,1,232.84,170.45Zm0,0a.58.58,0,1,0-1.16,0,.58.58,0,1,0,1.16,0Z" style="fill:#37474f"></path><path d="M240,170.45a.7.7,0,1,1-1.4,0,.7.7,0,0,1,.76-.7A.7.7,0,0,1,240,170.45Zm0,0a.58.58,0,1,0-1.16,0,.58.58,0,1,0,1.16,0Z" style="fill:#37474f"></path><path d="M225.73,170.45a.71.71,0,1,1-1.41,0,.71.71,0,0,1,1.41,0Zm0,0a.6.6,0,0,0-.65-.58.59.59,0,0,0-.51.58.57.57,0,0,0,.51.58A.59.59,0,0,0,225.73,170.45Z" style="fill:#37474f"></path><path d="M247.06,170.45a.7.7,0,1,1-.64-.7A.69.69,0,0,1,247.06,170.45Zm0,0a.59.59,0,0,0-.64-.58.58.58,0,0,0-.51.58.58.58,0,1,0,1.15,0Z" style="fill:#37474f"></path><path d="M254.18,170.45a.71.71,0,1,1-.64-.7A.7.7,0,0,1,254.18,170.45Zm0,0a.58.58,0,1,0-1.16,0,.58.58,0,1,0,1.16,0Z" style="fill:#37474f"></path><path d="M261.29,170.45a.71.71,0,1,1-.64-.7A.7.7,0,0,1,261.29,170.45Zm0,0a.58.58,0,1,0-1.16,0,.58.58,0,1,0,1.16,0Z" style="fill:#37474f"></path><path d="M268.4,170.45a.7.7,0,1,1-1.4,0,.7.7,0,0,1,.76-.7A.69.69,0,0,1,268.4,170.45Zm0,0a.59.59,0,0,0-.64-.58.58.58,0,0,0-.51.58.57.57,0,0,0,.51.58A.59.59,0,0,0,268.4,170.45Z" style="fill:#37474f"></path><path d="M275.52,170.45a.71.71,0,1,1-1.41,0,.71.71,0,0,1,1.41,0Zm0,0a.6.6,0,0,0-.65-.58.58.58,0,0,0-.51.58.57.57,0,0,0,.51.58A.59.59,0,0,0,275.52,170.45Z" style="fill:#37474f"></path><path d="M232.84,203.22a.7.7,0,0,1-.64.7.7.7,0,1,1,0-1.4A.7.7,0,0,1,232.84,203.22Zm0,0a.58.58,0,1,0-.64.58A.59.59,0,0,0,232.84,203.22Z" style="fill:#37474f"></path><path d="M240,203.22a.7.7,0,1,1-1.4,0,.7.7,0,0,1,.76-.7A.7.7,0,0,1,240,203.22Zm0,0a.58.58,0,1,0-.64.58A.59.59,0,0,0,240,203.22Z" style="fill:#37474f"></path><path d="M225.73,203.22a.71.71,0,1,1-.65-.7A.71.71,0,0,1,225.73,203.22Zm0,0a.58.58,0,1,0-1.16,0,.57.57,0,0,0,.51.58A.59.59,0,0,0,225.73,203.22Z" style="fill:#37474f"></path><path d="M247.06,203.22a.69.69,0,0,1-.64.7.7.7,0,1,1,0-1.4A.69.69,0,0,1,247.06,203.22Zm0,0a.58.58,0,1,0-1.15,0,.58.58,0,1,0,1.15,0Z" style="fill:#37474f"></path><path d="M254.18,203.22a.7.7,0,0,1-.64.7.7.7,0,1,1,0-1.4A.7.7,0,0,1,254.18,203.22Zm0,0a.58.58,0,1,0-.64.58A.59.59,0,0,0,254.18,203.22Z" style="fill:#37474f"></path><path d="M261.29,203.22a.7.7,0,0,1-.64.7.7.7,0,1,1,0-1.4A.7.7,0,0,1,261.29,203.22Zm0,0a.58.58,0,1,0-.64.58A.59.59,0,0,0,261.29,203.22Z" style="fill:#37474f"></path><path d="M268.4,203.22a.69.69,0,0,1-.64.7.7.7,0,1,1,0-1.4A.69.69,0,0,1,268.4,203.22Zm0,0a.59.59,0,0,0-.64-.58.58.58,0,0,0-.51.58.57.57,0,0,0,.51.58A.59.59,0,0,0,268.4,203.22Z" style="fill:#37474f"></path><path d="M275.52,203.22a.71.71,0,1,1-.65-.7A.71.71,0,0,1,275.52,203.22Zm0,0a.59.59,0,0,0-.65-.58.58.58,0,0,0-.51.58.57.57,0,0,0,.51.58A.59.59,0,0,0,275.52,203.22Z" style="fill:#37474f"></path><path d="M232.84,236a.7.7,0,0,1-.64.7.7.7,0,1,1,0-1.4A.7.7,0,0,1,232.84,236Zm0,0a.58.58,0,1,0-.64.58A.59.59,0,0,0,232.84,236Z" style="fill:#37474f"></path><path d="M240,236a.7.7,0,0,1-.64.7.7.7,0,1,1,0-1.4A.7.7,0,0,1,240,236Zm0,0a.58.58,0,1,0-.64.58A.59.59,0,0,0,240,236Z" style="fill:#37474f"></path><path d="M225.73,236a.71.71,0,0,1-.65.7.71.71,0,0,1-.76-.7.71.71,0,0,1,1.41,0Zm0,0a.59.59,0,0,0-.65-.58.58.58,0,0,0-.51.58.57.57,0,0,0,.51.58A.59.59,0,0,0,225.73,236Z" style="fill:#37474f"></path><path d="M247.06,236a.69.69,0,0,1-.64.7.71.71,0,0,1-.76-.7.7.7,0,0,1,.76-.7A.69.69,0,0,1,247.06,236Zm0,0a.58.58,0,0,0-.64-.58.58.58,0,1,0,.64.58Z" style="fill:#37474f"></path><path d="M254.18,236a.7.7,0,0,1-.64.7.7.7,0,1,1,0-1.4A.7.7,0,0,1,254.18,236Zm0,0a.58.58,0,1,0-.64.58A.59.59,0,0,0,254.18,236Z" style="fill:#37474f"></path><path d="M261.29,236a.7.7,0,0,1-.64.7.7.7,0,1,1,0-1.4A.7.7,0,0,1,261.29,236Zm0,0a.58.58,0,1,0-.64.58A.59.59,0,0,0,261.29,236Z" style="fill:#37474f"></path><path d="M268.4,236a.69.69,0,0,1-.64.7.7.7,0,1,1,0-1.4A.69.69,0,0,1,268.4,236Zm0,0a.59.59,0,0,0-.64-.58.58.58,0,0,0-.51.58.57.57,0,0,0,.51.58A.59.59,0,0,0,268.4,236Z" style="fill:#37474f"></path><path d="M275.52,236a.71.71,0,0,1-.65.7.71.71,0,0,1-.76-.7.71.71,0,0,1,1.41,0Zm0,0a.59.59,0,0,0-.65-.58.58.58,0,0,0-.51.58.57.57,0,0,0,.51.58A.59.59,0,0,0,275.52,236Z" style="fill:#37474f"></path><path d="M250,51.51a3.62,3.62,0,0,0-1.23,1.11c-.35.43-.69.87-1,1.33q-1,1.36-1.86,2.79c-1.19,1.89-2.3,3.84-3.34,5.81a92.18,92.18,0,0,0-5.4,12.26,50.29,50.29,0,0,0-2.94,13c-.14,2.22,0,4.47-.07,6.7v6.71l.08,53.67-.08,53.68,0,26.84L234,262.26l-.13-26.84,0-26.84-.08-53.68.08-53.67V94.52c0-2.24,0-4.47.09-6.72a50.15,50.15,0,0,1,3-13.07,90.77,90.77,0,0,1,5.52-12.23c1.07-2,2.19-3.91,3.4-5.79.6-1,1.22-1.88,1.88-2.78.33-.45.67-.89,1-1.32A3.72,3.72,0,0,1,250,51.51Z" style="fill:#37474f"></path><path d="M249.87,51.51a3.63,3.63,0,0,1,1.24,1.1c.36.43.7.87,1,1.32.66.9,1.29,1.83,1.89,2.78,1.21,1.88,2.33,3.82,3.39,5.79a90.77,90.77,0,0,1,5.52,12.23,50.15,50.15,0,0,1,3,13.07c.15,2.25.07,4.48.09,6.72l0,6.71.08,53.67-.08,53.68L266,235.42l-.12,26.84-.12-26.84-.05-26.84-.08-53.68.08-53.67V94.52c0-2.23.07-4.48-.06-6.7a50.31,50.31,0,0,0-3-13,92.12,92.12,0,0,0-5.39-12.26c-1.05-2-2.15-3.92-3.34-5.81q-.89-1.43-1.86-2.79c-.33-.46-.66-.9-1-1.33A3.53,3.53,0,0,0,249.87,51.51Z" style="fill:#37474f"></path><path d="M222.84,123.84V262.26h-21.6V123.84c0-8-.55-12.67,4.23-19.42,4.16-5.88,5.8-6.65,6.57-6.65s2.41.77,6.57,6.65C223.38,111.17,222.84,115.82,222.84,123.84Z" style="fill:#37474f"></path><rect x="222.79" y="120.32" width="4.47" height="1.82" style="fill:#37474f"></rect><rect x="222.79" y="137.41" width="4.47" height="1.82" style="fill:#37474f"></rect><rect x="222.79" y="154.51" width="4.47" height="1.82" style="fill:#37474f"></rect><rect x="222.79" y="171.61" width="4.47" height="1.82" style="fill:#37474f"></rect><path d="M201.62,113.28c3.48-.21,6.95-.22,10.42-.25s6.94,0,10.41.25c-3.47.21-6.94.22-10.41.25S205.1,113.49,201.62,113.28Z" style="fill:#263238"></path><path d="M201.22,130.13c3.6-.21,7.21-.22,10.82-.25s7.21,0,10.82.25c-3.61.2-7.22.22-10.82.25S204.82,130.33,201.22,130.13Z" style="fill:#263238"></path><path d="M201.22,148.89c3.6-.21,7.21-.22,10.82-.25s7.21,0,10.82.25c-3.61.2-7.22.22-10.82.25S204.82,149.09,201.22,148.89Z" style="fill:#263238"></path><path d="M201.22,167.65c3.6-.21,7.21-.22,10.82-.25s7.21,0,10.82.25c-3.61.2-7.22.22-10.82.25S204.82,167.85,201.22,167.65Z" style="fill:#263238"></path><path d="M201.22,186.41c3.6-.21,7.21-.22,10.82-.25s7.21,0,10.82.25c-3.61.2-7.22.22-10.82.25S204.82,186.61,201.22,186.41Z" style="fill:#263238"></path><path d="M201.22,205.17c3.6-.21,7.21-.22,10.82-.25s7.21,0,10.82.25c-3.61.2-7.22.22-10.82.25S204.82,205.37,201.22,205.17Z" style="fill:#263238"></path><path d="M201.22,223.93c3.6-.21,7.21-.22,10.82-.25s7.21,0,10.82.25c-3.61.2-7.22.22-10.82.24S204.82,224.13,201.22,223.93Z" style="fill:#263238"></path><path d="M201.22,242.68c3.6-.2,7.21-.22,10.82-.24s7.21,0,10.82.24c-3.61.21-7.22.23-10.82.25S204.82,242.89,201.22,242.68Z" style="fill:#263238"></path><path d="M216.68,124l-4.59.13c-1.55,0-3.12.09-4.69.09h-.22V124l0-4.55v-.26h.25c3.09,0,6.18,0,9.28.1h.15v.15C216.8,121,216.71,122.55,216.68,124Zm0,0c0-1.56-.13-3.08-.15-4.55l.15.14c-3.1.08-6.19.08-9.28.11l.25-.25,0,4.55-.22-.22c1.52,0,3,0,4.58.08Z" style="fill:#263238"></path><path d="M212.68,114.69a.77.77,0,1,1-.64-.77A.78.78,0,0,1,212.68,114.69Zm0,0a.52.52,0,1,0-1,0,.52.52,0,1,0,1,0Z" style="fill:#263238"></path><path d="M219.79,114.69a.77.77,0,0,1-.64.77.78.78,0,1,1,0-1.54A.76.76,0,0,1,219.79,114.69Zm0,0a.52.52,0,1,0-1,0,.52.52,0,1,0,1,0Z" style="fill:#263238"></path><path d="M205.57,114.69a.78.78,0,0,1-.64.77.78.78,0,1,1,0-1.54A.78.78,0,0,1,205.57,114.69Zm0,0a.52.52,0,0,0-.64-.51.53.53,0,0,0,0,1A.53.53,0,0,0,205.57,114.69Z" style="fill:#263238"></path><path d="M212.68,131.75A.77.77,0,1,1,212,131,.78.78,0,0,1,212.68,131.75Zm0,0a.52.52,0,1,0-1,0,.52.52,0,1,0,1,0Z" style="fill:#263238"></path><path d="M219.79,131.75a.77.77,0,0,1-.64.77.78.78,0,1,1,0-1.54A.76.76,0,0,1,219.79,131.75Zm0,0a.52.52,0,1,0-1,0,.52.52,0,1,0,1,0Z" style="fill:#263238"></path><path d="M205.57,131.75a.78.78,0,0,1-.64.77.78.78,0,1,1,0-1.54A.78.78,0,0,1,205.57,131.75Zm0,0a.52.52,0,0,0-.64-.51.53.53,0,0,0,0,1A.53.53,0,0,0,205.57,131.75Z" style="fill:#263238"></path><path d="M212.68,150.59a.78.78,0,0,1-.64.76.77.77,0,1,1,0-1.53A.78.78,0,0,1,212.68,150.59Zm0,0a.52.52,0,1,0-1,0,.52.52,0,1,0,1,0Z" style="fill:#263238"></path><path d="M219.79,150.59a.77.77,0,1,1-.64-.77A.77.77,0,0,1,219.79,150.59Zm0,0a.52.52,0,1,0-1,0,.52.52,0,1,0,1,0Z" style="fill:#263238"></path><path d="M205.57,150.59a.77.77,0,1,1-.64-.77A.78.78,0,0,1,205.57,150.59Zm0,0a.52.52,0,1,0-1,0,.52.52,0,0,0,.4.51A.52.52,0,0,0,205.57,150.59Z" style="fill:#263238"></path><path d="M212.68,169.42a.78.78,0,0,1-.64.77.77.77,0,1,1,0-1.53A.78.78,0,0,1,212.68,169.42Zm0,0a.53.53,0,0,0-.64-.51.54.54,0,0,0,0,1A.53.53,0,0,0,212.68,169.42Z" style="fill:#263238"></path><path d="M219.79,169.42a.77.77,0,1,1-.64-.76A.76.76,0,0,1,219.79,169.42Zm0,0a.52.52,0,0,0-.64-.51.54.54,0,0,0,0,1A.52.52,0,0,0,219.79,169.42Z" style="fill:#263238"></path><path d="M205.57,169.42a.77.77,0,1,1-.64-.76A.78.78,0,0,1,205.57,169.42Zm0,0a.52.52,0,1,0-1,0,.52.52,0,0,0,.4.52A.53.53,0,0,0,205.57,169.42Z" style="fill:#263238"></path><path d="M212.68,188.26a.78.78,0,0,1-.64.77.78.78,0,1,1,.64-.77Zm0,0a.52.52,0,1,0-1,0,.52.52,0,1,0,1,0Z" style="fill:#263238"></path><path d="M219.79,188.26a.77.77,0,1,1-.64-.76A.75.75,0,0,1,219.79,188.26Zm0,0a.52.52,0,1,0-1,0,.52.52,0,1,0,1,0Z" style="fill:#263238"></path><path d="M205.57,188.26a.77.77,0,1,1-.64-.76A.77.77,0,0,1,205.57,188.26Zm0,0a.52.52,0,0,0-.64-.51.53.53,0,0,0,0,1A.53.53,0,0,0,205.57,188.26Z" style="fill:#263238"></path><path d="M212.68,207.1a.77.77,0,1,1-.64-.77A.78.78,0,0,1,212.68,207.1Zm0,0a.52.52,0,1,0-.64.52A.53.53,0,0,0,212.68,207.1Z" style="fill:#263238"></path><path d="M219.79,207.1a.76.76,0,0,1-.64.76.77.77,0,1,1,0-1.53A.76.76,0,0,1,219.79,207.1Zm0,0a.53.53,0,0,0-.64-.52.54.54,0,0,0,0,1A.53.53,0,0,0,219.79,207.1Z" style="fill:#263238"></path><path d="M205.57,207.1a.77.77,0,0,1-.64.76.78.78,0,1,1,.64-.76Zm0,0a.53.53,0,0,0-.64-.52.55.55,0,0,0-.4.52.52.52,0,1,0,1,0Z" style="fill:#263238"></path><path d="M212.68,225.94a.78.78,0,0,1-.64.76.77.77,0,1,1,0-1.53A.78.78,0,0,1,212.68,225.94Zm0,0a.53.53,0,0,0-.64-.52.53.53,0,1,0,.64.52Z" style="fill:#263238"></path><path d="M219.79,225.94a.77.77,0,1,1-.64-.77A.77.77,0,0,1,219.79,225.94Zm0,0a.52.52,0,1,0-1,0,.52.52,0,1,0,1,0Z" style="fill:#263238"></path><path d="M205.57,225.94a.77.77,0,1,1-.64-.77A.78.78,0,0,1,205.57,225.94Zm0,0a.52.52,0,1,0-1,0,.52.52,0,0,0,.4.51A.52.52,0,0,0,205.57,225.94Z" style="fill:#263238"></path><path d="M212.68,244.77a.78.78,0,0,1-.64.77.78.78,0,1,1,.64-.77Zm0,0a.52.52,0,1,0-1,0,.52.52,0,1,0,1,0Z" style="fill:#263238"></path><path d="M219.79,244.77a.77.77,0,1,1-.64-.76A.75.75,0,0,1,219.79,244.77Zm0,0a.52.52,0,1,0-1,0,.52.52,0,1,0,1,0Z" style="fill:#263238"></path><path d="M205.57,244.77a.77.77,0,1,1-.64-.76A.77.77,0,0,1,205.57,244.77Zm0,0a.52.52,0,0,0-.64-.51.53.53,0,1,0,.64.51Z" style="fill:#263238"></path><path d="M207.84,107.89a.39.39,0,1,1-.39-.39A.38.38,0,0,1,207.84,107.89Z" style="fill:#263238"></path><path d="M209.37,110a.39.39,0,0,1-.39.38.39.39,0,0,1,0-.77A.39.39,0,0,1,209.37,110Z" style="fill:#263238"></path><path d="M212.42,110a.38.38,0,0,1-.38.38.39.39,0,1,1,0-.77A.38.38,0,0,1,212.42,110Z" style="fill:#263238"></path><path d="M215.48,110a.39.39,0,1,1-.39-.39A.38.38,0,0,1,215.48,110Z" style="fill:#263238"></path><path d="M210.89,107.89a.38.38,0,1,1-.38-.39A.38.38,0,0,1,210.89,107.89Z" style="fill:#263238"></path><path d="M214,107.89a.39.39,0,0,1-.77,0,.39.39,0,1,1,.77,0Z" style="fill:#263238"></path><path d="M217,107.89a.39.39,0,0,1-.39.38.39.39,0,0,1,0-.77A.39.39,0,0,1,217,107.89Z" style="fill:#263238"></path><path d="M209.37,121.75a.4.4,0,0,1-.39.39.39.39,0,0,1-.38-.39.38.38,0,0,1,.38-.38A.39.39,0,0,1,209.37,121.75Z" style="fill:#263238"></path><path d="M212.42,121.75a.39.39,0,0,1-.38.39.4.4,0,0,1-.39-.39.39.39,0,0,1,.39-.38A.38.38,0,0,1,212.42,121.75Z" style="fill:#263238"></path><path d="M215.48,121.75a.39.39,0,1,1-.77,0,.39.39,0,0,1,.77,0Z" style="fill:#263238"></path><rect x="197.4" y="120.32" width="3.81" height="8.57" style="fill:#37474f"></rect><path d="M277.12,123.84V262.26h21.6V123.84c0-8,.54-12.67-4.24-19.42-4.16-5.88-5.8-6.65-6.56-6.65s-2.41.77-6.57,6.65C276.57,111.17,277.12,115.82,277.12,123.84Z" style="fill:#37474f"></path><rect x="272.69" y="120.32" width="4.47" height="1.82" transform="translate(549.85 242.45) rotate(180)" style="fill:#37474f"></rect><rect x="272.69" y="137.41" width="4.47" height="1.82" transform="translate(549.85 276.65) rotate(180)" style="fill:#37474f"></rect><rect x="272.69" y="154.51" width="4.47" height="1.82" transform="translate(549.85 310.85) rotate(180)" style="fill:#37474f"></rect><rect x="272.69" y="171.61" width="4.47" height="1.82" transform="translate(549.85 345.04) rotate(180)" style="fill:#37474f"></rect><path d="M298.33,113.28c-3.47-.21-6.94-.22-10.41-.25s-6.95,0-10.42.25c3.47.21,6.95.22,10.42.25S294.86,113.49,298.33,113.28Z" style="fill:#263238"></path><path d="M298.74,130.13c-3.61-.21-7.22-.22-10.82-.25s-7.22,0-10.82.25c3.6.2,7.21.22,10.82.25S295.13,130.33,298.74,130.13Z" style="fill:#263238"></path><path d="M298.74,148.89c-3.61-.21-7.22-.22-10.82-.25s-7.22,0-10.82.25c3.6.2,7.21.22,10.82.25S295.13,149.09,298.74,148.89Z" style="fill:#263238"></path><path d="M298.74,167.65c-3.61-.21-7.22-.22-10.82-.25s-7.22,0-10.82.25c3.6.2,7.21.22,10.82.25S295.13,167.85,298.74,167.65Z" style="fill:#263238"></path><path d="M298.74,186.41c-3.61-.21-7.22-.22-10.82-.25s-7.22,0-10.82.25c3.6.2,7.21.22,10.82.25S295.13,186.61,298.74,186.41Z" style="fill:#263238"></path><path d="M298.74,205.17c-3.61-.21-7.22-.22-10.82-.25s-7.22,0-10.82.25c3.6.2,7.21.22,10.82.25S295.13,205.37,298.74,205.17Z" style="fill:#263238"></path><path d="M298.74,223.93c-3.61-.21-7.22-.22-10.82-.25s-7.22,0-10.82.25c3.6.2,7.21.22,10.82.24S295.13,224.13,298.74,223.93Z" style="fill:#263238"></path><path d="M298.74,242.68c-3.61-.2-7.22-.22-10.82-.24s-7.22,0-10.82.24c3.6.21,7.21.23,10.82.25S295.13,242.89,298.74,242.68Z" style="fill:#263238"></path><path d="M283.13,119.48v-.15h.15c3.09-.08,6.18-.08,9.28-.1h.25v.26l0,4.55v.22h-.22c-1.58,0-3.15-.06-4.7-.09l-4.58-.13C283.25,122.55,283.15,121,283.13,119.48Zm4.84,4.41c1.54,0,3.07-.08,4.59-.08l-.22.22,0-4.55.25.25c-3.1,0-6.19,0-9.28-.11l.14-.14c0,1.47-.11,3-.14,4.55Z" style="fill:#263238"></path><path d="M287.92,113.92a.78.78,0,1,1,0,1.54.78.78,0,0,1,0-1.54Zm0,1.29a.53.53,0,0,0,.39-.52.52.52,0,1,0-1,0A.53.53,0,0,0,287.92,115.21Z" style="fill:#263238"></path><path d="M280.8,113.92a.78.78,0,1,1-.64.77A.78.78,0,0,1,280.8,113.92Zm0,1.29a.52.52,0,0,0,.39-.52.51.51,0,0,0-.39-.51.52.52,0,0,0-.64.51A.53.53,0,0,0,280.8,115.21Z" style="fill:#263238"></path><path d="M295,113.92a.78.78,0,1,1-.64.77A.78.78,0,0,1,295,113.92Zm0,1.29a.53.53,0,0,0,.39-.52.52.52,0,1,0-1,0A.53.53,0,0,0,295,115.21Z" style="fill:#263238"></path><path d="M287.92,131a.78.78,0,1,1,0,1.54.78.78,0,0,1,0-1.54Zm0,1.29a.53.53,0,0,0,.39-.52.52.52,0,1,0-1,0A.53.53,0,0,0,287.92,132.27Z" style="fill:#263238"></path><path d="M280.8,131a.78.78,0,1,1-.64.77A.78.78,0,0,1,280.8,131Zm0,1.29a.52.52,0,0,0,.39-.52.51.51,0,0,0-.39-.51.52.52,0,0,0-.64.51A.53.53,0,0,0,280.8,132.27Z" style="fill:#263238"></path><path d="M295,131a.78.78,0,1,1-.64.77A.78.78,0,0,1,295,131Zm0,1.29a.53.53,0,0,0,.39-.52.52.52,0,1,0-1,0A.53.53,0,0,0,295,132.27Z" style="fill:#263238"></path><path d="M287.92,149.82a.77.77,0,1,1,0,1.53.78.78,0,0,1,0-1.53Zm0,1.28a.52.52,0,0,0,.39-.51.52.52,0,1,0-1,0A.52.52,0,0,0,287.92,151.1Z" style="fill:#263238"></path><path d="M280.8,149.82a.77.77,0,1,1,0,1.53.78.78,0,0,1,0-1.53Zm0,1.28a.51.51,0,0,0,.39-.51.52.52,0,0,0-.39-.52.53.53,0,0,0-.64.52A.52.52,0,0,0,280.8,151.1Z" style="fill:#263238"></path><path d="M295,149.82a.78.78,0,1,1-.64.77A.77.77,0,0,1,295,149.82Zm0,1.28a.52.52,0,0,0,.39-.51.52.52,0,1,0-1,0A.52.52,0,0,0,295,151.1Z" style="fill:#263238"></path><path d="M287.92,168.66a.77.77,0,1,1,0,1.53.78.78,0,0,1,0-1.53Zm0,1.28a.53.53,0,1,0-.64-.52A.52.52,0,0,0,287.92,169.94Z" style="fill:#263238"></path><path d="M280.8,168.66a.77.77,0,1,1,0,1.53.78.78,0,0,1,0-1.53Zm0,1.28a.54.54,0,0,0,0-1,.53.53,0,1,0,0,1Z" style="fill:#263238"></path><path d="M295,168.66a.78.78,0,1,1-.64.76A.77.77,0,0,1,295,168.66Zm0,1.28a.54.54,0,0,0,0-1,.53.53,0,1,0,0,1Z" style="fill:#263238"></path><path d="M287.92,187.5a.77.77,0,1,1,0,1.53.76.76,0,0,1-.64-.77A.75.75,0,0,1,287.92,187.5Zm0,1.28a.53.53,0,0,0,.39-.52.52.52,0,1,0-1,0A.53.53,0,0,0,287.92,188.78Z" style="fill:#263238"></path><path d="M280.8,187.5a.77.77,0,1,1,0,1.53.78.78,0,0,1-.64-.77A.77.77,0,0,1,280.8,187.5Zm0,1.28a.52.52,0,0,0,.39-.52.51.51,0,0,0-.39-.51.52.52,0,0,0-.64.51A.53.53,0,0,0,280.8,188.78Z" style="fill:#263238"></path><path d="M295,187.5a.78.78,0,1,1-.64.76A.76.76,0,0,1,295,187.5Zm0,1.28a.53.53,0,0,0,.39-.52.52.52,0,1,0-1,0A.53.53,0,0,0,295,188.78Z" style="fill:#263238"></path><path d="M287.92,206.33a.77.77,0,1,1,0,1.53.75.75,0,0,1-.64-.76A.76.76,0,0,1,287.92,206.33Zm0,1.29a.54.54,0,0,0,0-1,.53.53,0,1,0,0,1Z" style="fill:#263238"></path><path d="M280.8,206.33a.78.78,0,1,1-.64.77A.78.78,0,0,1,280.8,206.33Zm0,1.29a.54.54,0,0,0,0-1,.53.53,0,1,0,0,1Z" style="fill:#263238"></path><path d="M295,206.33a.77.77,0,1,1,0,1.53.76.76,0,0,1-.64-.76A.77.77,0,0,1,295,206.33Zm0,1.29a.53.53,0,1,0-.64-.52A.54.54,0,0,0,295,207.62Z" style="fill:#263238"></path><path d="M287.92,225.17a.77.77,0,1,1,0,1.53.78.78,0,0,1,0-1.53Zm0,1.28a.54.54,0,0,0,0-1,.52.52,0,0,0-.64.52A.52.52,0,0,0,287.92,226.45Z" style="fill:#263238"></path><path d="M280.8,225.17a.77.77,0,1,1,0,1.53.78.78,0,0,1,0-1.53Zm0,1.28a.54.54,0,0,0,0-1,.53.53,0,0,0-.64.52A.52.52,0,0,0,280.8,226.45Z" style="fill:#263238"></path><path d="M295,225.17a.78.78,0,1,1-.64.77A.77.77,0,0,1,295,225.17Zm0,1.28a.54.54,0,0,0,0-1,.53.53,0,0,0-.64.52A.52.52,0,0,0,295,226.45Z" style="fill:#263238"></path><path d="M287.92,244a.77.77,0,1,1,0,1.53.76.76,0,0,1-.64-.77A.75.75,0,0,1,287.92,244Zm0,1.28a.53.53,0,0,0,.39-.52.52.52,0,1,0-1,0A.52.52,0,0,0,287.92,245.29Z" style="fill:#263238"></path><path d="M280.8,244a.77.77,0,1,1,0,1.53.78.78,0,0,1-.64-.77A.77.77,0,0,1,280.8,244Zm0,1.28a.52.52,0,0,0,.39-.52.51.51,0,0,0-.39-.51.52.52,0,0,0-.64.51A.53.53,0,0,0,280.8,245.29Z" style="fill:#263238"></path><path d="M295,244a.78.78,0,1,1-.64.76A.76.76,0,0,1,295,244Zm0,1.28a.53.53,0,0,0,.39-.52.52.52,0,1,0-1,0A.53.53,0,0,0,295,245.29Z" style="fill:#263238"></path><path d="M292.12,107.89a.38.38,0,1,0,.38-.39A.38.38,0,0,0,292.12,107.89Z" style="fill:#263238"></path><path d="M290.59,110a.38.38,0,0,0,.38.38.39.39,0,1,0,0-.77A.38.38,0,0,0,290.59,110Z" style="fill:#263238"></path><path d="M287.53,110a.39.39,0,0,0,.39.38.39.39,0,0,0,0-.77A.39.39,0,0,0,287.53,110Z" style="fill:#263238"></path><path d="M284.48,110a.38.38,0,1,0,.38-.39A.38.38,0,0,0,284.48,110Z" style="fill:#263238"></path><path d="M289.06,107.89a.39.39,0,0,0,.77,0,.39.39,0,1,0-.77,0Z" style="fill:#263238"></path><path d="M286,107.89a.38.38,0,1,0,.38-.39A.38.38,0,0,0,286,107.89Z" style="fill:#263238"></path><path d="M283,107.89a.39.39,0,0,0,.77,0,.39.39,0,1,0-.77,0Z" style="fill:#263238"></path><path d="M290.59,121.75a.39.39,0,0,0,.38.39.4.4,0,0,0,.39-.39.39.39,0,0,0-.39-.38A.38.38,0,0,0,290.59,121.75Z" style="fill:#263238"></path><path d="M287.53,121.75a.4.4,0,0,0,.39.39.39.39,0,0,0,.38-.39.38.38,0,0,0-.38-.38A.39.39,0,0,0,287.53,121.75Z" style="fill:#263238"></path><path d="M284.48,121.75a.38.38,0,1,0,.76,0,.38.38,0,0,0-.76,0Z" style="fill:#263238"></path><rect x="298.74" y="120.32" width="3.81" height="8.57" transform="translate(601.29 249.2) rotate(180)" style="fill:#37474f"></rect><rect x="200.99" y="250" width="22.9" height="25.92" style="fill:#263238"></rect><rect x="202.47" y="275.92" width="19.94" height="3.1" style="fill:#37474f"></rect><rect x="204.07" y="279.02" width="16.74" height="2.42" style="fill:#263238"></rect><rect x="198.58" y="289.09" width="27.72" height="2.71" style="fill:#263238"></rect><path d="M224.89,289.09H200a13.95,13.95,0,0,1,24.89,0Z" style="fill:#37474f"></path><path d="M234.07,265.31V152.9s-4.11,7-5,10.43c-1.44,5.81-3.56,26.35-6.48,33.11-.88,2-5.2,14.82-10.74,20.13-7.32,7-16.3,14.37-20.41,18.56-5.6,5.69-12.82,11-12.82,28Z" style="fill:#407BFF"></path><path d="M234.07,265.31V152.9s-4.11,7-5,10.43c-1.44,5.81-3.56,26.35-6.48,33.11-.88,2-5.2,14.82-10.74,20.13-7.32,7-16.3,14.37-20.41,18.56-5.6,5.69-12.82,11-12.82,28Z" style="opacity:0.1"></path><path d="M234.07,152.9V265.31l-17-.67,14.52-107.25C232.86,155,234.07,152.9,234.07,152.9Z" style="opacity:0.1"></path><rect x="276.11" y="250" width="22.9" height="25.92" transform="translate(575.12 525.92) rotate(180)" style="fill:#263238"></rect><rect x="277.59" y="275.92" width="19.94" height="3.1" transform="translate(575.12 554.94) rotate(180)" style="fill:#37474f"></rect><rect x="279.19" y="279.02" width="16.74" height="2.42" transform="translate(575.12 560.46) rotate(180)" style="fill:#263238"></rect><rect x="273.7" y="289.09" width="27.72" height="2.71" transform="translate(575.12 580.88) rotate(180)" style="fill:#263238"></rect><path d="M275.11,289.09H300a13.95,13.95,0,0,0-24.89,0Z" style="fill:#37474f"></path><path d="M265.93,265.31V152.9s4.11,7,5,10.43c1.44,5.81,3.56,26.35,6.48,33.11.88,2,5.2,14.82,10.74,20.13,7.32,7,16.3,14.37,20.41,18.56,5.6,5.69,12.82,11,12.82,28Z" style="fill:#407BFF"></path><path d="M265.93,265.31V152.9s4.11,7,5,10.43c1.44,5.81,3.56,26.35,6.48,33.11.88,2,5.2,14.82,10.74,20.13,7.32,7,16.3,14.37,20.41,18.56,5.6,5.69,12.82,11,12.82,28Z" style="opacity:0.1"></path><path d="M265.93,152.9V265.31l17-.67L268.38,157.39C267.14,155,265.93,152.9,265.93,152.9Z" style="opacity:0.1"></path><path d="M222.85,299.94c0,19.39-10.17,39.14-10.17,39.14s-10.17-19.75-10.17-39.14a27.32,27.32,0,0,1,1.34-8.14h17.66A27.32,27.32,0,0,1,222.85,299.94Z" style="fill:#407BFF;opacity:0.6000000000000001"></path><path d="M219.37,295.22c0,15.58-6.69,31.46-6.69,31.46S206,310.8,206,295.22a24.37,24.37,0,0,1,.25-3.42h12.88A24.37,24.37,0,0,1,219.37,295.22Z" style="fill:#407BFF;opacity:0.6000000000000001"></path><path d="M297.73,299.94c0,19.39-10.17,39.14-10.17,39.14s-10.18-19.75-10.18-39.14a27.33,27.33,0,0,1,1.35-8.14h17.66A27.32,27.32,0,0,1,297.73,299.94Z" style="fill:#407BFF;opacity:0.6000000000000001"></path><path d="M294.25,295.22c0,15.58-6.69,31.46-6.69,31.46s-6.69-15.88-6.69-31.46a24.36,24.36,0,0,1,.24-3.42H294A24.37,24.37,0,0,1,294.25,295.22Z" style="fill:#407BFF;opacity:0.6000000000000001"></path><path d="M269.62,147.36v87.77H230.38V147.36c0-8,1.32-15.18,6.5-27.13s7.64-17,13.12-17,8,5.06,13.12,17S269.62,139.41,269.62,147.36Z" style="fill:#407BFF"></path><g style="opacity:0.1"><path d="M230.38,149q4.91-.14,9.81-.19l9.81-.06,9.81.06q4.9.06,9.81.19c-3.27.1-6.54.16-9.81.2l-9.81,0-9.81,0C236.92,149.14,233.65,149.08,230.38,149Z"></path><path d="M230.38,178.14q4.91-.13,9.81-.19l9.81-.06,9.81.06q4.9.06,9.81.19c-3.27.1-6.54.16-9.81.2l-9.81,0-9.81,0C236.92,178.3,233.65,178.24,230.38,178.14Z"></path><path d="M230.38,207.3q4.91-.13,9.81-.19l9.81-.06,9.81.06q4.9.06,9.81.19c-3.27.1-6.54.16-9.81.2l-9.81.05-9.81-.05C236.92,207.46,233.65,207.4,230.38,207.3Z"></path><path d="M232.86,151.24a.7.7,0,0,1-.64.7.71.71,0,1,1,.64-.7Zm0,0a.58.58,0,1,0-.64.58A.59.59,0,0,0,232.86,151.24Z"></path><path d="M240,151.24a.7.7,0,0,1-.64.7.71.71,0,1,1,0-1.41A.71.71,0,0,1,240,151.24Zm0,0a.58.58,0,1,0-.64.58A.59.59,0,0,0,240,151.24Z"></path><path d="M261.31,151.24a.7.7,0,0,1-.64.7.71.71,0,1,1,.64-.7Zm0,0a.58.58,0,1,0-.64.58A.59.59,0,0,0,261.31,151.24Z"></path><path d="M268.42,151.24a.69.69,0,0,1-.64.7.71.71,0,1,1,.64-.7Zm0,0a.59.59,0,0,0-.64-.58.57.57,0,0,0-.51.58.58.58,0,0,0,.51.58A.59.59,0,0,0,268.42,151.24Z"></path><path d="M232.86,180.82a.7.7,0,0,1-.64.7.71.71,0,1,1,.64-.7Zm0,0a.58.58,0,1,0-.64.58A.59.59,0,0,0,232.86,180.82Z"></path><path d="M240,180.82a.7.7,0,0,1-.64.7.71.71,0,1,1,0-1.41A.71.71,0,0,1,240,180.82Zm0,0a.58.58,0,1,0-.64.58A.59.59,0,0,0,240,180.82Z"></path><path d="M261.31,180.82a.7.7,0,0,1-.64.7.71.71,0,1,1,.64-.7Zm0,0a.58.58,0,1,0-.64.58A.59.59,0,0,0,261.31,180.82Z"></path><path d="M268.42,180.82a.69.69,0,0,1-.64.7.71.71,0,1,1,.64-.7Zm0,0a.59.59,0,0,0-.64-.58.57.57,0,0,0-.51.58.58.58,0,0,0,.51.58A.59.59,0,0,0,268.42,180.82Z"></path><path d="M232.86,210.4a.7.7,0,0,1-.64.7.71.71,0,1,1,.64-.7Zm0,0a.58.58,0,1,0-.64.58A.59.59,0,0,0,232.86,210.4Z"></path><path d="M240,210.4a.7.7,0,0,1-.64.7.71.71,0,1,1,0-1.41A.71.71,0,0,1,240,210.4Zm0,0a.58.58,0,1,0-.64.58A.59.59,0,0,0,240,210.4Z"></path><path d="M261.31,210.4a.7.7,0,0,1-.64.7.71.71,0,1,1,.64-.7Zm0,0a.58.58,0,1,0-.64.58A.59.59,0,0,0,261.31,210.4Z"></path><path d="M268.42,210.4a.69.69,0,0,1-.64.7.71.71,0,1,1,.64-.7Zm0,0a.59.59,0,0,0-.64-.58.57.57,0,0,0-.51.58.58.58,0,0,0,.51.58A.59.59,0,0,0,268.42,210.4Z"></path><path d="M250,149c.11,14.4.08,28.79.12,43.19s0,28.78-.12,43.18c-.11-14.4-.08-28.79-.12-43.18S249.89,163.38,250,149Z"></path></g><rect x="246.12" y="143.69" width="7.75" height="3.01" style="opacity:0.2"></rect><path d="M243.39,132.37l1.52,3.65a19.55,19.55,0,0,0-3.49,2.06l-1.73-3.31A16.87,16.87,0,0,1,243.39,132.37Z" style="fill:#263238"></path><path d="M256.61,132.37,255.09,136a19.55,19.55,0,0,1,3.49,2.06l1.73-3.31A16.87,16.87,0,0,0,256.61,132.37Z" style="fill:#263238"></path><path d="M255,131.67l-1.55,3.71a10.12,10.12,0,0,0-6.92,0L245,131.67a13.69,13.69,0,0,1,10,0Z" style="fill:#263238"></path><path d="M262.67,119.18H237.33c4.86-11.21,7.36-16,12.67-16S257.81,108,262.67,119.18Z" style="fill:#407BFF"></path><path d="M262.67,119.18H237.33c4.86-11.21,7.36-16,12.67-16S257.81,108,262.67,119.18Z" style="fill:#fff;opacity:0.5"></path><rect x="246.95" y="115.72" width="6.1" height="1.99" style="fill:#407BFF"></rect><rect x="231.97" y="235.13" width="36.06" height="34.6" style="fill:#dbdbdb"></rect><polygon points="268.03 237.91 231.97 239.64 231.97 235.13 268.03 235.13 268.03 237.91" style="fill:#c7c7c7"></polygon><rect x="234.3" y="269.73" width="7.63" height="4.91" style="fill:#263238"></rect><path d="M242.76,279.29h-9.3a4.65,4.65,0,1,1,9.3,0Z" style="fill:#dbdbdb"></path><rect x="258.03" y="269.73" width="7.63" height="4.91" style="fill:#263238"></rect><path d="M266.49,279.29H257.2a4.65,4.65,0,1,1,9.29,0Z" style="fill:#dbdbdb"></path><path d="M241.28,235.35c-4.82-.33-8.4,5.24-10.8,17.88-2.17,11.43-1.71,16.5-1.71,16.5h18.57V252.41C247.34,245.39,245.61,235.64,241.28,235.35Z" style="fill:#263238"></path><path d="M258.72,235.35c4.82-.33,8.4,5.24,10.8,17.88,2.17,11.43,1.71,16.5,1.71,16.5H252.66V252.41C252.66,245.39,254.39,235.64,258.72,235.35Z" style="fill:#263238"></path><path d="M253.78,252.43s-1.14,12.56-1.46,16.68c-.43,5.5-1,8.75-2.32,8.75s-1.89-3.25-2.32-8.75c-.33-4.12-1.46-16.68-1.46-16.68l3.78-6.38Z" style="fill:#c7c7c7"></path></g></svg>